<mxfile host="app.diagrams.net" agent="Mozilla/5.0 (Windows NT 10.0; Win64; x64) AppleWebKit/537.36 (KHTML, like Gecko) Chrome/134.0.0.0 Safari/537.36" version="26.0.14">
  <diagram name="Page-1" id="yivk_f0wFLMxU-xzk6i-">
    <mxGraphModel dx="1900" dy="1196" grid="0" gridSize="10" guides="1" tooltips="1" connect="1" arrows="1" fold="1" page="0" pageScale="1" pageWidth="827" pageHeight="1169" math="0" shadow="0">
      <root>
        <mxCell id="0" />
        <mxCell id="1" parent="0" />
        <mxCell id="d7fsfJQgzC4pk-C42a9W-5" value="&lt;font style=&quot;font-size: 15px;&quot; face=&quot;Comic Sans MS&quot;&gt;Users&lt;/font&gt;" style="swimlane;fontStyle=0;childLayout=stackLayout;horizontal=1;startSize=26;fillColor=none;horizontalStack=0;resizeParent=1;resizeParentMax=0;resizeLast=0;collapsible=1;marginBottom=0;whiteSpace=wrap;html=1;" parent="1" vertex="1">
          <mxGeometry x="233" y="164" width="140" height="303" as="geometry" />
        </mxCell>
        <mxCell id="d7fsfJQgzC4pk-C42a9W-6" value="&lt;font style=&quot;font-size: 15px; color: rgb(0, 0, 0);&quot; face=&quot;Comic Sans MS&quot;&gt;&lt;u&gt;&lt;b&gt;uid&lt;/b&gt;&lt;/u&gt;&lt;/font&gt;&lt;div&gt;&lt;div style=&quot;line-height: 19px; white-space: pre;&quot;&gt;&lt;font style=&quot;font-size: 15px; color: rgb(0, 0, 0);&quot; face=&quot;Comic Sans MS&quot;&gt;idPseudo&lt;/font&gt;&lt;/div&gt;&lt;div style=&quot;line-height: 19px;&quot;&gt;&lt;font style=&quot;color: rgb(0, 0, 0);&quot; face=&quot;Comic Sans MS&quot;&gt;&lt;span style=&quot;font-size: 15px; white-space: pre;&quot;&gt;pseudo&lt;/span&gt;&lt;/font&gt;&lt;/div&gt;&lt;div style=&quot;line-height: 19px; white-space: pre;&quot;&gt;&lt;font style=&quot;font-size: 15px; color: rgb(0, 0, 0);&quot; face=&quot;Comic Sans MS&quot;&gt;prenom&lt;/font&gt;&lt;/div&gt;&lt;div style=&quot;line-height: 19px; white-space: pre;&quot;&gt;&lt;font style=&quot;font-size: 15px; color: rgb(0, 0, 0);&quot; face=&quot;Comic Sans MS&quot;&gt;nomUser&lt;/font&gt;&lt;/div&gt;&lt;div style=&quot;line-height: 19px; white-space: pre;&quot;&gt;&lt;font style=&quot;font-size: 15px; color: rgb(0, 0, 0);&quot; face=&quot;Comic Sans MS&quot;&gt;email&lt;/font&gt;&lt;/div&gt;&lt;div style=&quot;line-height: 19px; white-space: pre;&quot;&gt;&lt;font style=&quot;font-size: 15px; color: rgb(0, 0, 0);&quot; face=&quot;Comic Sans MS&quot;&gt;mdp&lt;/font&gt;&lt;/div&gt;&lt;div style=&quot;line-height: 19px; white-space: pre;&quot;&gt;&lt;font style=&quot;font-size: 15px; color: rgb(0, 0, 0);&quot; face=&quot;Comic Sans MS&quot;&gt;bio&lt;/font&gt;&lt;/div&gt;&lt;div style=&quot;line-height: 19px; white-space: pre;&quot;&gt;&lt;font style=&quot;font-size: 15px; color: rgb(0, 0, 0);&quot; face=&quot;Comic Sans MS&quot;&gt;pdp&lt;/font&gt;&lt;/div&gt;&lt;div style=&quot;line-height: 19px; white-space: pre;&quot;&gt;&lt;font style=&quot;font-size: 15px; color: rgb(0, 0, 0);&quot; face=&quot;Comic Sans MS&quot;&gt;dinsc&lt;/font&gt;&lt;/div&gt;&lt;div style=&quot;line-height: 19px; white-space: pre;&quot;&gt;&lt;font style=&quot;font-size: 15px; color: rgb(0, 0, 0);&quot; face=&quot;Comic Sans MS&quot;&gt;dnaiss&lt;/font&gt;&lt;/div&gt;&lt;div style=&quot;line-height: 19px; white-space: pre;&quot;&gt;&lt;font style=&quot;font-size: 15px; color: rgb(0, 0, 0);&quot; face=&quot;Comic Sans MS&quot;&gt;loca&lt;/font&gt;&lt;/div&gt;&lt;div style=&quot;line-height: 19px; white-space: pre;&quot;&gt;&lt;span style=&quot;background-color: transparent; color: light-dark(rgb(0, 0, 0), rgb(237, 237, 237)); font-family: &amp;quot;Comic Sans MS&amp;quot;; font-size: 15px;&quot;&gt;admin&lt;/span&gt;&lt;/div&gt;&lt;/div&gt;" style="text;strokeColor=none;fillColor=none;align=left;verticalAlign=top;spacingLeft=4;spacingRight=4;overflow=hidden;rotatable=0;points=[[0,0.5],[1,0.5]];portConstraint=eastwest;whiteSpace=wrap;html=1;" parent="d7fsfJQgzC4pk-C42a9W-5" vertex="1">
          <mxGeometry y="26" width="140" height="277" as="geometry" />
        </mxCell>
        <mxCell id="d7fsfJQgzC4pk-C42a9W-17" value="&lt;font style=&quot;font-size: 15px;&quot; face=&quot;Comic Sans MS&quot;&gt;a envoyÃ© un mess&lt;/font&gt;" style="swimlane;fontStyle=0;childLayout=stackLayout;horizontal=1;startSize=26;fillColor=none;horizontalStack=0;resizeParent=1;resizeParentMax=0;resizeLast=0;collapsible=1;marginBottom=0;whiteSpace=wrap;html=1;rounded=1;" parent="1" vertex="1">
          <mxGeometry x="520" y="479" width="140" height="127" as="geometry" />
        </mxCell>
        <mxCell id="d7fsfJQgzC4pk-C42a9W-18" value="&lt;div&gt;&lt;font face=&quot;Comic Sans MS&quot;&gt;&lt;span style=&quot;font-size: 15px;&quot;&gt;&lt;u&gt;&lt;b&gt;mid&lt;/b&gt;&lt;/u&gt;&lt;/span&gt;&lt;/font&gt;&lt;/div&gt;&lt;font face=&quot;Comic Sans MS&quot;&gt;&lt;span style=&quot;font-size: 15px;&quot;&gt;corps&lt;/span&gt;&lt;/font&gt;&lt;div&gt;&lt;font face=&quot;Comic Sans MS&quot;&gt;&lt;span style=&quot;font-size: 15px;&quot;&gt;imgMess&lt;/span&gt;&lt;/font&gt;&lt;/div&gt;&lt;div&gt;&lt;font face=&quot;Comic Sans MS&quot;&gt;&lt;span style=&quot;font-size: 15px;&quot;&gt;dmess&lt;/span&gt;&lt;/font&gt;&lt;/div&gt;" style="text;strokeColor=none;fillColor=none;align=left;verticalAlign=top;spacingLeft=4;spacingRight=4;overflow=hidden;rotatable=0;points=[[0,0.5],[1,0.5]];portConstraint=eastwest;whiteSpace=wrap;html=1;" parent="d7fsfJQgzC4pk-C42a9W-17" vertex="1">
          <mxGeometry y="26" width="140" height="101" as="geometry" />
        </mxCell>
        <mxCell id="d7fsfJQgzC4pk-C42a9W-29" value="0,n" style="text;strokeColor=none;align=center;fillColor=none;html=1;verticalAlign=middle;whiteSpace=wrap;rounded=0;" parent="1" vertex="1">
          <mxGeometry x="413" y="349" width="60" height="30" as="geometry" />
        </mxCell>
        <mxCell id="d7fsfJQgzC4pk-C42a9W-30" value="0,n" style="text;strokeColor=none;align=center;fillColor=none;html=1;verticalAlign=middle;whiteSpace=wrap;rounded=0;" parent="1" vertex="1">
          <mxGeometry x="432" y="238" width="60" height="30" as="geometry" />
        </mxCell>
        <mxCell id="d7fsfJQgzC4pk-C42a9W-55" value="&lt;font style=&quot;font-size: 15px;&quot; face=&quot;Comic Sans MS&quot;&gt;est admin de&lt;/font&gt;" style="swimlane;fontStyle=0;childLayout=stackLayout;horizontal=1;startSize=64;fillColor=none;horizontalStack=0;resizeParent=1;resizeParentMax=0;resizeLast=0;collapsible=1;marginBottom=0;whiteSpace=wrap;html=1;perimeterSpacing=0;rounded=1;" parent="1" vertex="1">
          <mxGeometry x="-28" y="344" width="96" height="96" as="geometry" />
        </mxCell>
        <mxCell id="d7fsfJQgzC4pk-C42a9W-57" value="" style="endArrow=none;html=1;rounded=0;exitX=-0.019;exitY=0.655;exitDx=0;exitDy=0;exitPerimeter=0;entryX=1;entryY=0.25;entryDx=0;entryDy=0;" parent="1" target="d7fsfJQgzC4pk-C42a9W-55" edge="1" source="d7fsfJQgzC4pk-C42a9W-6">
          <mxGeometry width="50" height="50" relative="1" as="geometry">
            <mxPoint x="-144" y="669" as="sourcePoint" />
            <mxPoint x="134" y="445" as="targetPoint" />
          </mxGeometry>
        </mxCell>
        <mxCell id="d7fsfJQgzC4pk-C42a9W-58" value="0,n" style="text;strokeColor=none;align=center;fillColor=none;html=1;verticalAlign=middle;whiteSpace=wrap;rounded=0;" parent="1" vertex="1">
          <mxGeometry x="106" y="379" width="60" height="30" as="geometry" />
        </mxCell>
        <mxCell id="d7fsfJQgzC4pk-C42a9W-59" value="1,1" style="text;strokeColor=none;align=center;fillColor=none;html=1;verticalAlign=middle;whiteSpace=wrap;rounded=0;" parent="1" vertex="1">
          <mxGeometry x="-100" y="466" width="60" height="30" as="geometry" />
        </mxCell>
        <mxCell id="d7fsfJQgzC4pk-C42a9W-84" value="" style="endArrow=none;html=1;rounded=0;entryX=0.022;entryY=0.695;entryDx=0;entryDy=0;entryPerimeter=0;exitX=1.017;exitY=0.775;exitDx=0;exitDy=0;exitPerimeter=0;startArrow=none;startFill=0;" parent="1" edge="1" target="PKEufrfeis9sAtTlvpCK-33" source="d7fsfJQgzC4pk-C42a9W-6">
          <mxGeometry width="50" height="50" relative="1" as="geometry">
            <mxPoint x="359" y="390" as="sourcePoint" />
            <mxPoint x="520.8399999999997" y="363.82399999999984" as="targetPoint" />
          </mxGeometry>
        </mxCell>
        <mxCell id="d7fsfJQgzC4pk-C42a9W-85" value="" style="endArrow=none;html=1;rounded=0;entryX=0.995;entryY=0.224;entryDx=0;entryDy=0;entryPerimeter=0;exitX=0;exitY=0.25;exitDx=0;exitDy=0;startFill=0;" parent="1" source="PKEufrfeis9sAtTlvpCK-32" target="d7fsfJQgzC4pk-C42a9W-6" edge="1">
          <mxGeometry width="50" height="50" relative="1" as="geometry">
            <mxPoint x="523" y="228" as="sourcePoint" />
            <mxPoint x="519.5" y="248" as="targetPoint" />
          </mxGeometry>
        </mxCell>
        <mxCell id="d7fsfJQgzC4pk-C42a9W-86" value="" style="endArrow=none;html=1;rounded=0;exitX=0.03;exitY=1.006;exitDx=0;exitDy=0;exitPerimeter=0;entryX=0;entryY=0.5;entryDx=0;entryDy=0;startFill=0;" parent="1" source="d7fsfJQgzC4pk-C42a9W-6" target="d7fsfJQgzC4pk-C42a9W-18" edge="1">
          <mxGeometry width="50" height="50" relative="1" as="geometry">
            <mxPoint x="525.5" y="176" as="sourcePoint" />
            <mxPoint x="254" y="562" as="targetPoint" />
          </mxGeometry>
        </mxCell>
        <mxCell id="d7fsfJQgzC4pk-C42a9W-87" value="" style="endArrow=none;html=1;rounded=0;entryX=0.952;entryY=0.997;entryDx=0;entryDy=0;entryPerimeter=0;startFill=0;" parent="1" target="d7fsfJQgzC4pk-C42a9W-6" edge="1">
          <mxGeometry width="50" height="50" relative="1" as="geometry">
            <mxPoint x="527" y="483" as="sourcePoint" />
            <mxPoint x="544" y="153" as="targetPoint" />
          </mxGeometry>
        </mxCell>
        <mxCell id="PKEufrfeis9sAtTlvpCK-2" value="0,n" style="text;strokeColor=none;align=center;fillColor=none;html=1;verticalAlign=middle;whiteSpace=wrap;rounded=0;" vertex="1" parent="1">
          <mxGeometry x="468" y="429" width="60" height="30" as="geometry" />
        </mxCell>
        <mxCell id="PKEufrfeis9sAtTlvpCK-3" value="0,n" style="text;strokeColor=none;align=center;fillColor=none;html=1;verticalAlign=middle;whiteSpace=wrap;rounded=0;" vertex="1" parent="1">
          <mxGeometry x="282" y="516" width="60" height="30" as="geometry" />
        </mxCell>
        <mxCell id="PKEufrfeis9sAtTlvpCK-4" value="&lt;font style=&quot;font-size: 15px;&quot; face=&quot;Comic Sans MS&quot;&gt;Posts&lt;/font&gt;" style="swimlane;fontStyle=0;childLayout=stackLayout;horizontal=1;startSize=26;fillColor=none;horizontalStack=0;resizeParent=1;resizeParentMax=0;resizeLast=0;collapsible=1;marginBottom=0;whiteSpace=wrap;html=1;" vertex="1" parent="1">
          <mxGeometry x="-92" y="-85" width="140" height="152" as="geometry" />
        </mxCell>
        <mxCell id="PKEufrfeis9sAtTlvpCK-5" value="&lt;div style=&quot;line-height: 19px;&quot;&gt;&lt;font style=&quot;font-size: 15px; color: rgb(0, 0, 0);&quot; face=&quot;Comic Sans MS&quot;&gt;&lt;u&gt;&lt;b&gt;pid&lt;/b&gt;&lt;/u&gt;&lt;/font&gt;&lt;/div&gt;&lt;div style=&quot;line-height: 19px;&quot;&gt;&lt;font style=&quot;font-size: 15px; color: rgb(0, 0, 0);&quot; face=&quot;Comic Sans MS&quot;&gt;&lt;span style=&quot;white-space: pre;&quot;&gt;contenu&lt;/span&gt;&lt;/font&gt;&lt;/div&gt;&lt;div style=&quot;line-height: 19px;&quot;&gt;&lt;font style=&quot;font-size: 15px; color: rgb(0, 0, 0);&quot; face=&quot;Comic Sans MS&quot;&gt;&lt;span style=&quot;white-space: pre;&quot;&gt;media&lt;/span&gt;&lt;/font&gt;&lt;/div&gt;&lt;div style=&quot;line-height: 19px;&quot;&gt;&lt;font style=&quot;font-size: 15px; color: rgb(0, 0, 0);&quot; face=&quot;Comic Sans MS&quot;&gt;&lt;span style=&quot;white-space: pre;&quot;&gt;dpub&lt;/span&gt;&lt;/font&gt;&lt;/div&gt;&lt;div style=&quot;line-height: 19px;&quot;&gt;&lt;font style=&quot;font-size: 15px; color: rgb(0, 0, 0);&quot; face=&quot;Comic Sans MS&quot;&gt;&lt;span style=&quot;white-space: pre;&quot;&gt;dfin&lt;/span&gt;&lt;/font&gt;&lt;/div&gt;" style="text;strokeColor=none;fillColor=none;align=left;verticalAlign=top;spacingLeft=4;spacingRight=4;overflow=hidden;rotatable=0;points=[[0,0.5],[1,0.5]];portConstraint=eastwest;whiteSpace=wrap;html=1;" vertex="1" parent="PKEufrfeis9sAtTlvpCK-4">
          <mxGeometry y="26" width="140" height="126" as="geometry" />
        </mxCell>
        <mxCell id="PKEufrfeis9sAtTlvpCK-6" value="&lt;font style=&quot;font-size: 15px;&quot; face=&quot;Comic Sans MS&quot;&gt;Groupes&lt;/font&gt;" style="swimlane;fontStyle=0;childLayout=stackLayout;horizontal=1;startSize=26;fillColor=none;horizontalStack=0;resizeParent=1;resizeParentMax=0;resizeLast=0;collapsible=1;marginBottom=0;whiteSpace=wrap;html=1;" vertex="1" parent="1">
          <mxGeometry x="-261" y="429" width="140" height="152" as="geometry" />
        </mxCell>
        <mxCell id="PKEufrfeis9sAtTlvpCK-7" value="&lt;div style=&quot;line-height: 19px;&quot;&gt;&lt;font style=&quot;font-size: 15px; color: rgb(0, 0, 0);&quot; face=&quot;Comic Sans MS&quot;&gt;&lt;u&gt;&lt;b&gt;gid&lt;/b&gt;&lt;/u&gt;&lt;/font&gt;&lt;/div&gt;&lt;div style=&quot;line-height: 19px;&quot;&gt;&lt;font style=&quot;font-size: 15px; color: rgb(0, 0, 0);&quot; face=&quot;Comic Sans MS&quot;&gt;&lt;span style=&quot;white-space: pre;&quot;&gt;nomGrp&lt;/span&gt;&lt;/font&gt;&lt;/div&gt;&lt;div style=&quot;line-height: 19px;&quot;&gt;&lt;font style=&quot;font-size: 15px; color: rgb(0, 0, 0);&quot; face=&quot;Comic Sans MS&quot;&gt;&lt;span style=&quot;white-space: pre;&quot;&gt;pdpGrp&lt;/span&gt;&lt;/font&gt;&lt;/div&gt;&lt;div style=&quot;line-height: 19px;&quot;&gt;&lt;font style=&quot;font-size: 15px; color: rgb(0, 0, 0);&quot; face=&quot;Comic Sans MS&quot;&gt;&lt;span style=&quot;white-space: pre;&quot;&gt;description&lt;/span&gt;&lt;/font&gt;&lt;/div&gt;&lt;div style=&quot;line-height: 19px;&quot;&gt;&lt;font style=&quot;font-size: 15px; color: rgb(0, 0, 0);&quot; face=&quot;Comic Sans MS&quot;&gt;&lt;span style=&quot;white-space: pre;&quot;&gt;dcreat&lt;/span&gt;&lt;/font&gt;&lt;/div&gt;" style="text;strokeColor=none;fillColor=none;align=left;verticalAlign=top;spacingLeft=4;spacingRight=4;overflow=hidden;rotatable=0;points=[[0,0.5],[1,0.5]];portConstraint=eastwest;whiteSpace=wrap;html=1;" vertex="1" parent="PKEufrfeis9sAtTlvpCK-6">
          <mxGeometry y="26" width="140" height="126" as="geometry" />
        </mxCell>
        <mxCell id="PKEufrfeis9sAtTlvpCK-8" value="&lt;font style=&quot;font-size: 15px;&quot; face=&quot;Comic Sans MS&quot;&gt;Logs&lt;/font&gt;" style="swimlane;fontStyle=0;childLayout=stackLayout;horizontal=1;startSize=26;fillColor=none;horizontalStack=0;resizeParent=1;resizeParentMax=0;resizeLast=0;collapsible=1;marginBottom=0;whiteSpace=wrap;html=1;" vertex="1" parent="1">
          <mxGeometry x="674" y="-70" width="140" height="121" as="geometry" />
        </mxCell>
        <mxCell id="PKEufrfeis9sAtTlvpCK-9" value="&lt;div style=&quot;line-height: 19px;&quot;&gt;&lt;font style=&quot;font-size: 15px; color: rgb(0, 0, 0);&quot; face=&quot;Comic Sans MS&quot;&gt;&lt;u&gt;&lt;b&gt;lid&lt;/b&gt;&lt;/u&gt;&lt;/font&gt;&lt;/div&gt;&lt;div style=&quot;line-height: 19px;&quot;&gt;&lt;font face=&quot;Comic Sans MS&quot;&gt;&lt;span style=&quot;font-size: 15px; white-space: pre;&quot;&gt;daction&lt;/span&gt;&lt;/font&gt;&lt;/div&gt;&lt;div style=&quot;line-height: 19px;&quot;&gt;&lt;font face=&quot;Comic Sans MS&quot;&gt;&lt;span style=&quot;font-size: 15px; white-space: pre;&quot;&gt;pseudoLog&lt;/span&gt;&lt;/font&gt;&lt;/div&gt;&lt;div style=&quot;line-height: 19px;&quot;&gt;&lt;font face=&quot;Comic Sans MS&quot;&gt;&lt;span style=&quot;font-size: 15px; white-space: pre;&quot;&gt;textLog&lt;/span&gt;&lt;/font&gt;&lt;/div&gt;" style="text;strokeColor=none;fillColor=none;align=left;verticalAlign=top;spacingLeft=4;spacingRight=4;overflow=hidden;rotatable=0;points=[[0,0.5],[1,0.5]];portConstraint=eastwest;whiteSpace=wrap;html=1;" vertex="1" parent="PKEufrfeis9sAtTlvpCK-8">
          <mxGeometry y="26" width="140" height="95" as="geometry" />
        </mxCell>
        <mxCell id="PKEufrfeis9sAtTlvpCK-10" value="" style="endArrow=none;html=1;rounded=0;exitX=0;exitY=0.5;exitDx=0;exitDy=0;entryX=1;entryY=0.5;entryDx=0;entryDy=0;" edge="1" parent="1" source="d7fsfJQgzC4pk-C42a9W-55" target="PKEufrfeis9sAtTlvpCK-7">
          <mxGeometry width="50" height="50" relative="1" as="geometry">
            <mxPoint x="240" y="381" as="sourcePoint" />
            <mxPoint x="144" y="455" as="targetPoint" />
          </mxGeometry>
        </mxCell>
        <mxCell id="PKEufrfeis9sAtTlvpCK-11" value="" style="endArrow=none;html=1;rounded=0;exitX=0.021;exitY=0.234;exitDx=0;exitDy=0;exitPerimeter=0;entryX=1;entryY=0.75;entryDx=0;entryDy=0;" edge="1" parent="1" source="d7fsfJQgzC4pk-C42a9W-6" target="PKEufrfeis9sAtTlvpCK-12">
          <mxGeometry width="50" height="50" relative="1" as="geometry">
            <mxPoint x="314.15999999999985" y="163.9980000000001" as="sourcePoint" />
            <mxPoint x="270" y="48" as="targetPoint" />
          </mxGeometry>
        </mxCell>
        <mxCell id="PKEufrfeis9sAtTlvpCK-12" value="&lt;font style=&quot;font-size: 15px;&quot; face=&quot;Comic Sans MS&quot;&gt;a postÃ©&lt;/font&gt;" style="swimlane;fontStyle=0;childLayout=stackLayout;horizontal=1;startSize=64;fillColor=none;horizontalStack=0;resizeParent=1;resizeParentMax=0;resizeLast=0;collapsible=1;marginBottom=0;whiteSpace=wrap;html=1;perimeterSpacing=0;rounded=1;" vertex="1" parent="1">
          <mxGeometry x="10" y="180" width="96" height="96" as="geometry" />
        </mxCell>
        <mxCell id="PKEufrfeis9sAtTlvpCK-14" value="0,n" style="text;strokeColor=none;align=center;fillColor=none;html=1;verticalAlign=middle;whiteSpace=wrap;rounded=0;" vertex="1" parent="1">
          <mxGeometry x="135" y="220" width="60" height="30" as="geometry" />
        </mxCell>
        <mxCell id="PKEufrfeis9sAtTlvpCK-15" value="1,1" style="text;strokeColor=none;align=center;fillColor=none;html=1;verticalAlign=middle;whiteSpace=wrap;rounded=0;" vertex="1" parent="1">
          <mxGeometry y="101" width="60" height="30" as="geometry" />
        </mxCell>
        <mxCell id="PKEufrfeis9sAtTlvpCK-16" value="" style="endArrow=none;html=1;rounded=0;exitX=0.25;exitY=0;exitDx=0;exitDy=0;entryX=0.386;entryY=1.029;entryDx=0;entryDy=0;entryPerimeter=0;" edge="1" parent="1" source="PKEufrfeis9sAtTlvpCK-12" target="PKEufrfeis9sAtTlvpCK-5">
          <mxGeometry width="50" height="50" relative="1" as="geometry">
            <mxPoint x="209" y="3" as="sourcePoint" />
            <mxPoint x="97" y="40" as="targetPoint" />
          </mxGeometry>
        </mxCell>
        <mxCell id="PKEufrfeis9sAtTlvpCK-17" value="&lt;font style=&quot;font-size: 15px;&quot; face=&quot;Comic Sans MS&quot;&gt;a un post parent&lt;/font&gt;" style="swimlane;fontStyle=0;childLayout=stackLayout;horizontal=1;startSize=64;fillColor=none;horizontalStack=0;resizeParent=1;resizeParentMax=0;resizeLast=0;collapsible=1;marginBottom=0;whiteSpace=wrap;html=1;perimeterSpacing=0;rounded=1;" vertex="1" parent="1">
          <mxGeometry x="-364" y="-23" width="142" height="96" as="geometry" />
        </mxCell>
        <mxCell id="PKEufrfeis9sAtTlvpCK-18" value="" style="endArrow=none;html=1;rounded=0;exitX=0;exitY=0.5;exitDx=0;exitDy=0;entryX=1;entryY=0.75;entryDx=0;entryDy=0;" edge="1" parent="1" source="PKEufrfeis9sAtTlvpCK-5" target="PKEufrfeis9sAtTlvpCK-17">
          <mxGeometry width="50" height="50" relative="1" as="geometry">
            <mxPoint x="97.15999999999985" y="-88.0019999999999" as="sourcePoint" />
            <mxPoint x="87" y="-189" as="targetPoint" />
          </mxGeometry>
        </mxCell>
        <mxCell id="PKEufrfeis9sAtTlvpCK-19" value="0,1" style="text;strokeColor=none;align=center;fillColor=none;html=1;verticalAlign=middle;whiteSpace=wrap;rounded=0;" vertex="1" parent="1">
          <mxGeometry x="-197" y="-4" width="60" height="30" as="geometry" />
        </mxCell>
        <mxCell id="PKEufrfeis9sAtTlvpCK-21" value="" style="endArrow=none;html=1;rounded=0;entryX=0.75;entryY=0;entryDx=0;entryDy=0;exitX=0;exitY=0;exitDx=0;exitDy=0;" edge="1" parent="1" source="PKEufrfeis9sAtTlvpCK-4" target="PKEufrfeis9sAtTlvpCK-17">
          <mxGeometry width="50" height="50" relative="1" as="geometry">
            <mxPoint x="-191.69999999999982" y="199.33799999999997" as="sourcePoint" />
            <mxPoint x="-555" y="56" as="targetPoint" />
          </mxGeometry>
        </mxCell>
        <mxCell id="PKEufrfeis9sAtTlvpCK-22" value="0,n" style="text;strokeColor=none;align=center;fillColor=none;html=1;verticalAlign=middle;whiteSpace=wrap;rounded=0;" vertex="1" parent="1">
          <mxGeometry x="-237" y="-92" width="60" height="30" as="geometry" />
        </mxCell>
        <mxCell id="PKEufrfeis9sAtTlvpCK-23" value="&lt;font style=&quot;font-size: 15px;&quot; face=&quot;Comic Sans MS&quot;&gt;appartient Ã &lt;/font&gt;" style="swimlane;fontStyle=0;childLayout=stackLayout;horizontal=1;startSize=64;fillColor=none;horizontalStack=0;resizeParent=1;resizeParentMax=0;resizeLast=0;collapsible=1;marginBottom=0;whiteSpace=wrap;html=1;perimeterSpacing=0;rounded=1;" vertex="1" parent="1">
          <mxGeometry x="-233" y="203" width="96" height="96" as="geometry" />
        </mxCell>
        <mxCell id="PKEufrfeis9sAtTlvpCK-24" value="" style="endArrow=none;html=1;rounded=0;exitX=0.5;exitY=0;exitDx=0;exitDy=0;entryX=0.5;entryY=1;entryDx=0;entryDy=0;" edge="1" parent="1" source="PKEufrfeis9sAtTlvpCK-6" target="PKEufrfeis9sAtTlvpCK-23">
          <mxGeometry width="50" height="50" relative="1" as="geometry">
            <mxPoint x="1" y="491" as="sourcePoint" />
            <mxPoint x="-111" y="528" as="targetPoint" />
          </mxGeometry>
        </mxCell>
        <mxCell id="PKEufrfeis9sAtTlvpCK-25" value="0,n" style="text;strokeColor=none;align=center;fillColor=none;html=1;verticalAlign=middle;whiteSpace=wrap;rounded=0;" vertex="1" parent="1">
          <mxGeometry x="-184" y="355" width="60" height="30" as="geometry" />
        </mxCell>
        <mxCell id="PKEufrfeis9sAtTlvpCK-26" value="0,1" style="text;strokeColor=none;align=center;fillColor=none;html=1;verticalAlign=middle;whiteSpace=wrap;rounded=0;" vertex="1" parent="1">
          <mxGeometry x="-152" y="139" width="60" height="30" as="geometry" />
        </mxCell>
        <mxCell id="PKEufrfeis9sAtTlvpCK-27" value="" style="endArrow=none;html=1;rounded=0;exitX=0.5;exitY=0;exitDx=0;exitDy=0;entryX=0;entryY=0.976;entryDx=0;entryDy=0;entryPerimeter=0;" edge="1" parent="1" source="PKEufrfeis9sAtTlvpCK-23" target="PKEufrfeis9sAtTlvpCK-5">
          <mxGeometry width="50" height="50" relative="1" as="geometry">
            <mxPoint x="-181" y="439" as="sourcePoint" />
            <mxPoint x="-175" y="309" as="targetPoint" />
          </mxGeometry>
        </mxCell>
        <mxCell id="PKEufrfeis9sAtTlvpCK-29" value="" style="endArrow=none;html=1;rounded=0;exitX=0.005;exitY=0.874;exitDx=0;exitDy=0;exitPerimeter=0;entryX=0;entryY=1;entryDx=0;entryDy=0;" edge="1" parent="1" source="d7fsfJQgzC4pk-C42a9W-6" target="PKEufrfeis9sAtTlvpCK-30">
          <mxGeometry width="50" height="50" relative="1" as="geometry">
            <mxPoint x="240" y="381" as="sourcePoint" />
            <mxPoint x="116.00000000000045" y="509" as="targetPoint" />
          </mxGeometry>
        </mxCell>
        <mxCell id="PKEufrfeis9sAtTlvpCK-30" value="0,n" style="text;strokeColor=none;align=center;fillColor=none;html=1;verticalAlign=middle;whiteSpace=wrap;rounded=0;" vertex="1" parent="1">
          <mxGeometry x="163" y="486" width="60" height="30" as="geometry" />
        </mxCell>
        <mxCell id="PKEufrfeis9sAtTlvpCK-32" value="&lt;font style=&quot;font-size: 15px;&quot; face=&quot;Comic Sans MS&quot;&gt;s&#39;est abonnÃ© Ã &lt;/font&gt;&lt;div&gt;&lt;font style=&quot;font-size: 15px;&quot; face=&quot;Comic Sans MS&quot;&gt;(Abonnements)&lt;/font&gt;&lt;/div&gt;" style="swimlane;fontStyle=0;childLayout=stackLayout;horizontal=1;startSize=64;fillColor=none;horizontalStack=0;resizeParent=1;resizeParentMax=0;resizeLast=0;collapsible=1;marginBottom=0;whiteSpace=wrap;html=1;perimeterSpacing=0;rounded=1;" vertex="1" parent="1">
          <mxGeometry x="530" y="250" width="198" height="94" as="geometry" />
        </mxCell>
        <mxCell id="PKEufrfeis9sAtTlvpCK-33" value="&lt;span style=&quot;font-family: &amp;quot;Comic Sans MS&amp;quot;; font-size: 15px; text-align: left; text-wrap-mode: wrap;&quot;&gt;dabonnement&lt;/span&gt;" style="text;html=1;align=center;verticalAlign=middle;resizable=0;points=[];autosize=1;strokeColor=none;fillColor=none;" vertex="1" parent="PKEufrfeis9sAtTlvpCK-32">
          <mxGeometry y="64" width="198" height="30" as="geometry" />
        </mxCell>
        <mxCell id="PKEufrfeis9sAtTlvpCK-34" value="&lt;font face=&quot;Comic Sans MS&quot;&gt;&lt;span style=&quot;font-size: 15px;&quot;&gt;a rejoint&lt;/span&gt;&lt;/font&gt;&lt;div&gt;&lt;font face=&quot;Comic Sans MS&quot;&gt;&lt;span style=&quot;font-size: 15px;&quot;&gt;(Membre)&lt;/span&gt;&lt;/font&gt;&lt;/div&gt;" style="swimlane;fontStyle=0;childLayout=stackLayout;horizontal=1;startSize=64;fillColor=none;horizontalStack=0;resizeParent=1;resizeParentMax=0;resizeLast=0;collapsible=1;marginBottom=0;whiteSpace=wrap;html=1;perimeterSpacing=0;rounded=1;" vertex="1" parent="1">
          <mxGeometry x="-10" y="516" width="198" height="94" as="geometry" />
        </mxCell>
        <mxCell id="PKEufrfeis9sAtTlvpCK-35" value="&lt;span style=&quot;font-family: &amp;quot;Comic Sans MS&amp;quot;; font-size: 15px; text-align: left; text-wrap-mode: wrap;&quot;&gt;djoin&lt;/span&gt;" style="text;html=1;align=center;verticalAlign=middle;resizable=0;points=[];autosize=1;strokeColor=none;fillColor=none;" vertex="1" parent="PKEufrfeis9sAtTlvpCK-34">
          <mxGeometry y="64" width="198" height="30" as="geometry" />
        </mxCell>
        <mxCell id="PKEufrfeis9sAtTlvpCK-36" value="" style="endArrow=none;html=1;rounded=0;exitX=0;exitY=0.5;exitDx=0;exitDy=0;entryX=1.003;entryY=0.951;entryDx=0;entryDy=0;entryPerimeter=0;" edge="1" parent="1" source="PKEufrfeis9sAtTlvpCK-34" target="PKEufrfeis9sAtTlvpCK-7">
          <mxGeometry width="50" height="50" relative="1" as="geometry">
            <mxPoint x="-18" y="402" as="sourcePoint" />
            <mxPoint x="-111" y="528" as="targetPoint" />
          </mxGeometry>
        </mxCell>
        <mxCell id="PKEufrfeis9sAtTlvpCK-37" value="0,n" style="text;strokeColor=none;align=center;fillColor=none;html=1;verticalAlign=middle;whiteSpace=wrap;rounded=0;" vertex="1" parent="1">
          <mxGeometry x="-100" y="576" width="60" height="30" as="geometry" />
        </mxCell>
        <mxCell id="PKEufrfeis9sAtTlvpCK-39" value="&lt;div&gt;&lt;font style=&quot;font-size: 15px;&quot; face=&quot;Comic Sans MS&quot;&gt;a rÃ©agit Ã &amp;nbsp;&lt;/font&gt;&lt;/div&gt;&lt;div&gt;&lt;font style=&quot;font-size: 15px;&quot; face=&quot;Comic Sans MS&quot;&gt;(RÃ©actions)&lt;/font&gt;&lt;/div&gt;" style="swimlane;fontStyle=0;childLayout=stackLayout;horizontal=1;startSize=64;fillColor=none;horizontalStack=0;resizeParent=1;resizeParentMax=0;resizeLast=0;collapsible=1;marginBottom=0;whiteSpace=wrap;html=1;perimeterSpacing=0;rounded=1;" vertex="1" parent="1">
          <mxGeometry x="326" y="-149" width="198" height="113" as="geometry" />
        </mxCell>
        <mxCell id="PKEufrfeis9sAtTlvpCK-40" value="&lt;div&gt;&lt;span style=&quot;font-family: &amp;quot;Comic Sans MS&amp;quot;; font-size: 15px; text-align: left; text-wrap-mode: wrap;&quot;&gt;type&lt;/span&gt;&lt;/div&gt;&lt;span style=&quot;font-family: &amp;quot;Comic Sans MS&amp;quot;; font-size: 15px; text-align: left; text-wrap-mode: wrap;&quot;&gt;dreact&lt;/span&gt;" style="text;html=1;align=center;verticalAlign=middle;resizable=0;points=[];autosize=1;strokeColor=none;fillColor=none;" vertex="1" parent="PKEufrfeis9sAtTlvpCK-39">
          <mxGeometry y="64" width="198" height="49" as="geometry" />
        </mxCell>
        <mxCell id="PKEufrfeis9sAtTlvpCK-41" value="&lt;div&gt;&lt;font style=&quot;font-size: 15px;&quot; face=&quot;Comic Sans MS&quot;&gt;a mis en favori&lt;/font&gt;&lt;/div&gt;&lt;div&gt;&lt;font style=&quot;font-size: 15px;&quot; face=&quot;Comic Sans MS&quot;&gt;(Favoris)&lt;/font&gt;&lt;/div&gt;" style="swimlane;fontStyle=0;childLayout=stackLayout;horizontal=1;startSize=64;fillColor=none;horizontalStack=0;resizeParent=1;resizeParentMax=0;resizeLast=0;collapsible=1;marginBottom=0;whiteSpace=wrap;html=1;perimeterSpacing=0;rounded=1;" vertex="1" parent="1">
          <mxGeometry x="106" y="26" width="198" height="94" as="geometry" />
        </mxCell>
        <mxCell id="PKEufrfeis9sAtTlvpCK-42" value="&lt;span style=&quot;font-family: &amp;quot;Comic Sans MS&amp;quot;; font-size: 15px; text-align: left; text-wrap-mode: wrap;&quot;&gt;dfavori&lt;/span&gt;" style="text;html=1;align=center;verticalAlign=middle;resizable=0;points=[];autosize=1;strokeColor=none;fillColor=none;" vertex="1" parent="PKEufrfeis9sAtTlvpCK-41">
          <mxGeometry y="64" width="198" height="30" as="geometry" />
        </mxCell>
        <mxCell id="PKEufrfeis9sAtTlvpCK-43" value="" style="endArrow=none;html=1;rounded=0;exitX=0;exitY=0.25;exitDx=0;exitDy=0;entryX=1;entryY=0.5;entryDx=0;entryDy=0;" edge="1" parent="1" source="PKEufrfeis9sAtTlvpCK-41" target="PKEufrfeis9sAtTlvpCK-5">
          <mxGeometry width="50" height="50" relative="1" as="geometry">
            <mxPoint x="44" y="190" as="sourcePoint" />
            <mxPoint x="-28" y="81" as="targetPoint" />
          </mxGeometry>
        </mxCell>
        <mxCell id="PKEufrfeis9sAtTlvpCK-44" value="" style="endArrow=none;html=1;rounded=0;exitX=0;exitY=0.25;exitDx=0;exitDy=0;entryX=1.012;entryY=0.042;entryDx=0;entryDy=0;entryPerimeter=0;" edge="1" parent="1" source="PKEufrfeis9sAtTlvpCK-39" target="PKEufrfeis9sAtTlvpCK-5">
          <mxGeometry width="50" height="50" relative="1" as="geometry">
            <mxPoint x="116" y="60" as="sourcePoint" />
            <mxPoint x="58" y="14" as="targetPoint" />
          </mxGeometry>
        </mxCell>
        <mxCell id="PKEufrfeis9sAtTlvpCK-45" value="" style="endArrow=none;html=1;rounded=0;exitX=0.544;exitY=1.005;exitDx=0;exitDy=0;entryX=0.75;entryY=0;entryDx=0;entryDy=0;exitPerimeter=0;" edge="1" parent="1" source="PKEufrfeis9sAtTlvpCK-40" target="d7fsfJQgzC4pk-C42a9W-5">
          <mxGeometry width="50" height="50" relative="1" as="geometry">
            <mxPoint x="336" y="-115" as="sourcePoint" />
            <mxPoint x="60" y="-44" as="targetPoint" />
          </mxGeometry>
        </mxCell>
        <mxCell id="PKEufrfeis9sAtTlvpCK-46" value="" style="endArrow=none;html=1;rounded=0;exitX=0.154;exitY=0.962;exitDx=0;exitDy=0;entryX=0;entryY=0;entryDx=0;entryDy=0;exitPerimeter=0;" edge="1" parent="1" source="PKEufrfeis9sAtTlvpCK-42" target="d7fsfJQgzC4pk-C42a9W-5">
          <mxGeometry width="50" height="50" relative="1" as="geometry">
            <mxPoint x="444" y="-45" as="sourcePoint" />
            <mxPoint x="348" y="174" as="targetPoint" />
          </mxGeometry>
        </mxCell>
        <mxCell id="PKEufrfeis9sAtTlvpCK-47" value="0,n" style="text;strokeColor=none;align=center;fillColor=none;html=1;verticalAlign=middle;whiteSpace=wrap;rounded=0;" vertex="1" parent="1">
          <mxGeometry x="155" y="150" width="60" height="30" as="geometry" />
        </mxCell>
        <mxCell id="PKEufrfeis9sAtTlvpCK-48" value="0,n" style="text;strokeColor=none;align=center;fillColor=none;html=1;verticalAlign=middle;whiteSpace=wrap;rounded=0;" vertex="1" parent="1">
          <mxGeometry x="68" y="-14" width="60" height="30" as="geometry" />
        </mxCell>
        <mxCell id="PKEufrfeis9sAtTlvpCK-49" value="0,n" style="text;strokeColor=none;align=center;fillColor=none;html=1;verticalAlign=middle;whiteSpace=wrap;rounded=0;" vertex="1" parent="1">
          <mxGeometry x="395" y="51" width="60" height="30" as="geometry" />
        </mxCell>
        <mxCell id="PKEufrfeis9sAtTlvpCK-50" value="0,n" style="text;strokeColor=none;align=center;fillColor=none;html=1;verticalAlign=middle;whiteSpace=wrap;rounded=0;" vertex="1" parent="1">
          <mxGeometry x="158" y="-122" width="60" height="30" as="geometry" />
        </mxCell>
      </root>
    </mxGraphModel>
  </diagram>
</mxfile>
